<svg width="48" height="48" viewBox="0 0 48 48" fill="none" xmlns="http://www.w3.org/2000/svg">
<path d="M38 23V36C38 36.5305 37.7893 37.0392 37.4142 37.4143C37.0391 37.7893 36.5304 38 36 38H12C11.4696 38 10.9609 37.7893 10.5858 37.4143C10.2107 37.0392 10 36.5305 10 36V23H38ZM21.076 11.133C21.4502 10.7321 21.9029 10.4125 22.406 10.1939C22.909 9.97533 23.4516 9.86255 24 9.86255C24.5484 9.86255 25.091 9.97533 25.594 10.1939C26.0971 10.4125 26.5498 10.7321 26.924 11.133L38 23H10L21.076 11.133Z" fill="#8484FF"/>
<path d="M10 23C17.57 14.888 30.43 14.888 38 23H10Z" fill="#8484FF"/>
<path d="M34 14H14C12.8954 14 12 14.8954 12 16V27C12 28.1046 12.8954 29 14 29H34C35.1046 29 36 28.1046 36 27V16C36 14.8954 35.1046 14 34 14Z" fill="#DDDDFF"/>
<path d="M38 27.6L36.586 23L13 38H36C36.5304 38 37.0391 37.7893 37.4142 37.4142C37.7893 37.0391 38 36.5304 38 36V27.6Z" fill="#8484FF"/>
<path d="M10 27.6L11.357 23L34 38H12C11.4696 38 10.9609 37.7893 10.5858 37.4142C10.2107 37.0391 10 36.5304 10 36V27.6Z" fill="#8484FF"/>
<path d="M25 19C25.5523 19 26 18.5523 26 18C26 17.4477 25.5523 17 25 17H17C16.4477 17 16 17.4477 16 18C16 18.5523 16.4477 19 17 19H25Z" fill="#8484FF"/>
<path d="M31 24C31.5523 24 32 23.5523 32 23C32 22.4477 31.5523 22 31 22H17C16.4477 22 16 22.4477 16 23C16 23.5523 16.4477 24 17 24H31Z" fill="#8484FF"/>
</svg>
