<svg width="100%" height="100%" viewBox="0 0 48 48" fill="none"
    xmlns="http://www.w3.org/2000/svg">
<g clip-path="url(#clip0_9_2213)">
<path fill-rule="evenodd" clip-rule="evenodd" d="M28.8877 39.1496L28.8273 12.2372C28.6709 12.0559 28.3659 12.1106 28.2466 12.151L27.4523 12.4364C27.3543 12.0624 27.227 11.6996 27.0722 11.3524C26.5085 10.105 25.6848 9.44543 24.6876 9.44363H24.6845C24.6179 9.44363 24.5521 9.45081 24.4855 9.4571L24.4778 9.45799C24.449 9.41682 24.419 9.37672 24.388 9.33774C23.9544 8.79932 23.397 8.53638 22.7296 8.55882C21.4429 8.60189 20.1616 9.68054 19.1218 11.5964C18.3902 12.9452 17.8351 14.6386 17.6764 15.9496L15.1424 16.8605C14.3969 17.1324 14.3736 17.1593 14.2753 17.975C14.2018 18.5924 12.25 36.1084 12.25 36.1084L28.6074 39.391L28.8877 39.1496ZM23.5286 9.78913C23.3111 9.62311 23.0564 9.54594 22.7544 9.55311C20.7678 9.61952 19.0351 13.2207 18.5931 15.6203L20.4961 14.9365L20.8359 14.8145C21.0852 13.2907 21.7108 11.7095 22.5291 10.6919C22.8153 10.3272 23.153 10.0219 23.5279 9.78913H23.5286ZM21.7766 14.4761L24.508 13.4944C24.5165 12.6688 24.4391 11.4484 24.083 10.5869C23.7036 10.7682 23.3846 11.0858 23.1555 11.3703C22.5415 12.1358 22.0406 13.3033 21.7774 14.4761H21.7766ZM25.3635 13.1875L26.6332 12.7307C26.4304 11.9662 25.9488 10.6847 24.9725 10.4693C25.276 11.3784 25.3542 12.431 25.3635 13.1875Z" fill="#95BF47"/>
<path d="M32.5528 14.2393C32.4552 14.2304 30.5646 14.1963 30.5646 14.1963C30.5646 14.1963 28.9829 12.4141 28.8265 12.2319C28.766 12.1671 28.6893 12.1263 28.6074 12.1152V39.3866L35.6953 37.3415C35.6953 37.3415 32.8028 14.6458 32.7843 14.4906C32.7753 14.4247 32.7476 14.3641 32.7055 14.3186C32.6634 14.273 32.6101 14.2451 32.5528 14.2393Z" fill="#5E8E3E"/>
<path d="M24.6805 18.474L23.8567 22.0491C23.8567 22.0491 22.9385 21.5636 21.8492 21.6435C20.2528 21.7602 20.2358 22.9294 20.252 23.2229C20.3387 24.8202 23.9628 25.1702 24.1664 28.915C24.3267 31.8611 22.8201 33.8775 20.6492 34.0354C18.044 34.2265 16.6094 32.4426 16.6094 32.4426L17.1614 29.7163C17.1614 29.7163 18.6053 30.9807 19.7604 30.8955C20.516 30.8407 20.7854 30.1282 20.7583 29.6239C20.6445 27.5393 17.6933 27.6613 17.5067 24.2351C17.3503 21.3501 18.9815 18.4291 22.5824 18.1653C23.9697 18.063 24.6805 18.4748 24.6805 18.4748" fill="white"/>
</g>
<defs>
<clipPath id="clip0_9_2213">
<rect width="24.0004" height="31.4083" fill="white" transform="translate(12 8.2959)"/>
</clipPath>
</defs>
</svg>
