<svg width="100%" height="100%" viewBox="0 0 48 48" fill="none"
    xmlns="http://www.w3.org/2000/svg">
<path d="M10 15C10 12.7909 11.7909 11 14 11H34C36.2091 11 38 12.7909 38 15V28.4348C38 30.6439 36.2091 32.4348 34 32.4348H30.3636L25.5305 38.1805C24.7313 39.1306 23.2687 39.1306 22.4695 38.1805L17.6364 32.4348H14C11.7909 32.4348 10 30.6439 10 28.4348V15Z" fill="#AAE9D8"/>
<path d="M31 18C31.5523 18 32 17.5523 32 17C32 16.4477 31.5523 16 31 16H17C16.4477 16 16 16.4477 16 17C16 17.5523 16.4477 18 17 18H31Z" fill="#09C3A3"/>
<path d="M31 23C31.5523 23 32 22.5523 32 22C32 21.4477 31.5523 21 31 21H17C16.4477 21 16 21.4477 16 22C16 22.5523 16.4477 23 17 23H31Z" fill="#09C3A3"/>
<path d="M24 28C24.5523 28 25 27.5523 25 27C25 26.4477 24.5523 26 24 26H17C16.4477 26 16 26.4477 16 27C16 27.5523 16.4477 28 17 28H24Z" fill="#09C3A3"/>
</svg>
