<svg width="100%" height="100%" viewBox="0 0 48 48" fill="none"
    xmlns="http://www.w3.org/2000/svg">
<mask id="mask0_9_2214" style="mask-type:luminance" maskUnits="userSpaceOnUse" x="8" y="7" width="32" height="32">
<path d="M40 7H8V39H40V7Z" fill="white"/>
</mask>
<g mask="url(#mask0_9_2214)">
<g filter="url(#filter0_dd_9_2214)">
<path d="M8 39.0008L10.2605 30.7871C8.86361 28.3764 8.13025 25.6416 8.13445 22.8586C8.13445 14.1125 15.285 7.00232 24.0672 7.00232C26.1601 7.00252 28.2323 7.41312 30.1657 8.21068C32.0991 9.00825 33.8558 10.1771 35.3354 11.6506C36.815 13.1241 37.9885 14.8733 38.789 16.7983C39.5895 18.7234 40.0013 20.7865 40.0008 22.87C39.997 31.6161 32.8488 38.7262 24.0672 38.7262H24.0581C21.3981 38.7261 18.7806 38.0625 16.4446 36.796L8 39.0008ZM16.838 33.925L17.3216 34.211C19.3623 35.4138 21.6903 36.0484 24.0619 36.0484H24.0672C31.3667 36.0484 37.3071 30.1353 37.3102 22.8685C37.3114 19.372 35.9175 16.0182 33.435 13.5448C30.9525 11.0714 27.5848 9.68099 24.0726 9.67938C16.7678 9.67938 10.8274 15.591 10.8243 22.8578C10.8205 25.3391 11.5224 27.7707 12.8487 29.8714L13.1643 30.3703L11.8258 35.2377L16.838 33.925Z" fill="white"/>
<path d="M8.55469 38.4486L10.7365 30.5163C9.38728 28.1877 8.67895 25.546 8.68303 22.8578C8.68685 14.4159 15.5868 7.55139 24.065 7.55139C26.0856 7.55149 28.0864 7.94793 29.9531 8.71806C31.8198 9.48819 33.5158 10.6169 34.9441 12.0398C36.3725 13.4626 37.5053 15.1517 38.2778 17.0105C39.0503 18.8693 39.4473 20.8614 39.4462 22.873C39.4462 31.3149 32.5424 38.1809 24.065 38.1809H24.0581C21.4904 38.181 18.9636 37.541 16.7082 36.3191L8.55469 38.4486Z" fill="url(#paint0_linear_9_2214)"/>
<path d="M8 39.0008L10.2605 30.7871C8.86361 28.3764 8.13025 25.6416 8.13445 22.8586C8.13445 14.1125 15.285 7.00232 24.0672 7.00232C26.1601 7.00252 28.2323 7.41312 30.1657 8.21068C32.0991 9.00825 33.8558 10.1771 35.3354 11.6506C36.815 13.1241 37.9885 14.8733 38.789 16.7983C39.5895 18.7234 40.0013 20.7865 40.0008 22.87C39.997 31.6161 32.8488 38.7262 24.0672 38.7262H24.0581C21.3981 38.7261 18.7806 38.0625 16.4446 36.796L8 39.0008ZM16.838 33.925L17.3216 34.211C19.3623 35.4138 21.6903 36.0484 24.0619 36.0484H24.0672C31.3667 36.0484 37.3071 30.1353 37.3102 22.8685C37.3114 19.372 35.9175 16.0182 33.435 13.5448C30.9525 11.0714 27.5848 9.68099 24.0726 9.67938C16.7678 9.67938 10.8274 15.591 10.8243 22.8578C10.8205 25.3391 11.5224 27.7707 12.8487 29.8714L13.1643 30.3703L11.8258 35.2377L16.838 33.925Z" fill="url(#paint1_linear_9_2214)"/>
<path d="M20.0853 16.2276C19.7874 15.5675 19.4742 15.5545 19.19 15.5431C18.9608 15.5332 18.6919 15.534 18.4261 15.534C18.2244 15.5393 18.026 15.5862 17.8434 15.6715C17.6608 15.7568 17.4979 15.8788 17.3649 16.0299C16.9998 16.4268 15.9707 17.385 15.9707 19.335C15.9707 21.285 17.3978 23.1697 17.5964 23.4344C17.795 23.699 20.3504 27.8278 24.3955 29.4166C27.7568 30.7368 28.4444 30.4745 29.1732 30.4052C29.902 30.336 31.5284 29.4463 31.86 28.5208C32.1915 27.5952 32.1923 26.8027 32.0892 26.6369C31.986 26.4711 31.7248 26.3723 31.3252 26.1745C30.9257 25.9768 28.97 25.017 28.6056 24.8854C28.2412 24.7539 27.9746 24.6868 27.7095 25.0838C27.4444 25.4808 26.6812 26.3723 26.449 26.6369C26.2167 26.9016 25.9845 26.9351 25.5865 26.7366C25.1885 26.5381 23.9058 26.1197 22.3848 24.7697C21.2015 23.7187 20.4024 22.4221 20.1694 22.0251C19.9364 21.6281 20.1449 21.4166 20.3443 21.2165C20.5231 21.0386 20.7423 20.7535 20.9417 20.5223C21.1411 20.2911 21.2068 20.1253 21.339 19.8614C21.4711 19.5975 21.4054 19.3655 21.3061 19.167C21.2068 18.9685 20.439 17.0109 20.0853 16.2276Z" fill="white"/>
</g>
</g>
<defs>
<filter id="filter0_dd_9_2214" x="5" y="5.00232" width="38.001" height="37.9985" filterUnits="userSpaceOnUse" color-interpolation-filters="sRGB">
<feFlood flood-opacity="0" result="BackgroundImageFix"/>
<feColorMatrix in="SourceAlpha" type="matrix" values="0 0 0 0 0 0 0 0 0 0 0 0 0 0 0 0 0 0 127 0" result="hardAlpha"/>
<feOffset dy="1"/>
<feGaussianBlur stdDeviation="1"/>
<feColorMatrix type="matrix" values="0 0 0 0 0.262745 0 0 0 0 0.333333 0 0 0 0 0.423529 0 0 0 0.06 0"/>
<feBlend mode="normal" in2="BackgroundImageFix" result="effect1_dropShadow_9_2214"/>
<feColorMatrix in="SourceAlpha" type="matrix" values="0 0 0 0 0 0 0 0 0 0 0 0 0 0 0 0 0 0 127 0" result="hardAlpha"/>
<feOffset dy="1"/>
<feGaussianBlur stdDeviation="1.5"/>
<feColorMatrix type="matrix" values="0 0 0 0 0.262745 0 0 0 0 0.333333 0 0 0 0 0.423529 0 0 0 0.1 0"/>
<feBlend mode="normal" in2="effect1_dropShadow_9_2214" result="effect2_dropShadow_9_2214"/>
<feBlend mode="normal" in="SourceGraphic" in2="effect2_dropShadow_9_2214" result="shape"/>
</filter>
<linearGradient id="paint0_linear_9_2214" x1="24" y1="38.4463" x2="24" y2="7.55443" gradientUnits="userSpaceOnUse">
<stop stop-color="#20B038"/>
<stop offset="1" stop-color="#60D66A"/>
</linearGradient>
<linearGradient id="paint1_linear_9_2214" x1="24.0008" y1="39.0008" x2="24.0008" y2="7.0008" gradientUnits="userSpaceOnUse">
<stop stop-color="#F9F9F9"/>
<stop offset="1" stop-color="white"/>
</linearGradient>
</defs>
</svg>
